# xmcd
#
# Track frame offsets:
# 150
# 15309
# 40669
# 57172
# 73436
# 92950
# 111392
# 126114
# 151510
# 171302
# 187305
# 200755
# 217791
#
# Disc length: 3093 seconds
#
#
# Revision: 0
# Processed by: cddbd v1.5.1PL0 Copyright (c) Steve Scherf et al.
# Submitted via: FreeRIP 2.941 
#
DISCID=b90c130d
DTITLE=Brooks and Dunn - Hillbilly Deluxe
DYEAR=2005
DGENRE=Country
TTITLE0=Play Something Country
TTITLE1=She's About As Lonely As I'm Going To Let Her Get
TTITLE2=My Heart's Not A Hotel
TTITLE3=Whiskey Do My Talkin'
TTITLE4=Hillbilly Deluxe
TTITLE5=One More Roll Of The dice
TTITLE6=Just Another Neon Night
TTITLE7=Believe
TTITLE8=Building Bridges
TTITLE9=Her West Was Wilder
TTITLE10=May I Never Get Over You
TTITLE11=She Likes To Get Out Of Town
TTITLE12=Again
EXTD=
EXTT0=
EXTT1=
EXTT2=
EXTT3=
EXTT4=
EXTT5=
EXTT6=
EXTT7=
EXTT8=
EXTT9=
EXTT10=
EXTT11=
EXTT12=
PLAYORDER=
